<svg width="410.645" height="115.434" viewBox="0 0 410.645 115.434" xmlns="http://www.w3.org/2000/svg"><g id="svgGroup" stroke-linecap="round" fill-rule="evenodd" font-size="9pt" stroke="#000" stroke-width="0.25mm" fill="black" style="stroke:#000;stroke-width:0.25mm;fill:black"><path d="M 279.31 66.674 L 271.466 87.874 L 262.138 87.874 L 269.982 63.6 A 824.041 824.041 0 0 0 271.324 59.466 Q 271.846 57.843 272.305 56.385 A 414.242 414.242 0 0 0 273.162 53.636 A 498.492 498.492 0 0 0 273.769 51.652 Q 274.619 48.845 275.21 46.76 A 174.475 174.475 0 0 0 275.229 46.693 Q 276.024 43.884 276.342 42.135 A 27.265 27.265 0 0 0 276.51 41.109 Q 276.65 40.125 276.66 39.424 A 7.386 7.386 0 0 0 276.66 39.326 A 6.802 6.802 0 0 0 276.597 38.353 Q 276.429 37.198 275.816 36.749 A 1.577 1.577 0 0 0 274.858 36.464 Q 273.829 36.464 272.468 37.621 A 10.673 10.673 0 0 0 272.102 37.948 A 18.485 18.485 0 0 0 270.701 39.419 Q 269.794 40.475 268.869 41.817 A 36.957 36.957 0 0 0 267.071 44.718 A 47.309 47.309 0 0 0 265.742 47.276 Q 264.258 50.35 263.198 53.53 L 260.018 51.94 A 79.728 79.728 0 0 1 262.409 45.711 Q 265.16 39.409 268.339 35.828 A 17.504 17.504 0 0 1 271.825 32.766 A 12.653 12.653 0 0 1 278.886 30.634 Q 282.278 30.634 283.709 32.542 Q 284.943 34.187 285.113 37.801 A 25.694 25.694 0 0 1 285.14 39.008 Q 285.14 44.414 283.338 48.654 L 283.656 48.972 Q 289.062 39.432 294.627 35.033 A 20.665 20.665 0 0 1 300.777 31.617 A 18.42 18.42 0 0 1 306.764 30.634 A 15.649 15.649 0 0 1 309.462 30.851 Q 310.933 31.109 312.098 31.673 A 7.352 7.352 0 0 1 313.866 32.86 Q 316.304 35.086 316.304 39.22 Q 316.304 40.576 316.048 42.241 A 27.571 27.571 0 0 1 316.039 42.294 A 28.575 28.575 0 0 1 315.788 43.663 Q 315.662 44.274 315.5 44.952 A 58.047 58.047 0 0 1 315.138 46.375 A 66.214 66.214 0 0 1 314.594 48.29 Q 314.085 49.992 313.389 52.046 A 1261.252 1261.252 0 0 0 312.487 54.719 Q 312.084 55.92 311.633 57.266 A 2597.551 2597.551 0 0 0 310.686 60.102 Q 308.248 67.31 306.658 72.186 A 66.411 66.411 0 0 0 305.981 74.38 Q 305.068 77.55 305.068 79.076 Q 305.068 80.666 306.128 80.666 A 2.712 2.712 0 0 0 307.014 80.494 Q 308.31 80.04 310.282 78.39 A 28.352 28.352 0 0 0 310.474 78.228 Q 312.854 76.201 316.627 72.121 A 189.751 189.751 0 0 0 318.212 70.384 L 320.968 71.868 A 30.02 30.02 0 0 1 318.16 76.165 A 36.039 36.039 0 0 1 316.569 78.069 A 54.933 54.933 0 0 1 311.677 82.909 A 50.05 50.05 0 0 1 310.951 83.528 A 35.986 35.986 0 0 1 307.779 85.909 A 28.094 28.094 0 0 1 305.174 87.45 Q 303.244 88.451 301.651 88.777 A 7.288 7.288 0 0 1 300.192 88.934 Q 297.542 88.934 296.005 86.602 Q 294.468 84.27 294.468 80.454 Q 294.468 78.97 294.733 77.433 A 19.148 19.148 0 0 1 294.902 76.582 Q 295.114 75.618 295.481 74.303 A 81.951 81.951 0 0 1 295.846 73.034 A 111.762 111.762 0 0 1 296.32 71.48 Q 297.105 68.966 298.337 65.349 A 451.567 451.567 0 0 1 299.235 62.742 Q 300.696 58.539 302.842 52.576 A 614.131 614.131 0 0 0 303.513 50.628 Q 303.774 49.866 304.004 49.187 A 295.587 295.587 0 0 0 304.432 47.912 Q 304.919 46.451 305.251 45.27 A 36.124 36.124 0 0 0 305.439 44.573 A 33.173 33.173 0 0 0 305.688 43.552 Q 305.802 43.047 305.883 42.599 A 16.888 16.888 0 0 0 305.969 42.082 A 14.443 14.443 0 0 0 306.11 40.736 A 12.132 12.132 0 0 0 306.128 40.068 Q 306.128 36.146 303.266 36.146 A 6.138 6.138 0 0 0 301.218 36.527 Q 299.485 37.14 297.489 38.743 Q 294.711 40.975 291.854 44.459 A 58.486 58.486 0 0 0 290.917 45.633 A 70.496 70.496 0 0 0 287.046 51.161 A 88.176 88.176 0 0 0 284.504 55.438 Q 281.43 60.95 279.31 66.674 Z M 58.936 65.296 L 62.752 67.84 A 104.856 104.856 0 0 1 59.309 72.758 Q 57.378 75.346 55.491 77.486 A 42.469 42.469 0 0 1 51.528 81.448 A 33.491 33.491 0 0 1 48.124 84.058 Q 44.308 86.602 40.068 87.768 A 32.92 32.92 0 0 1 33.387 88.859 A 38.851 38.851 0 0 1 30.952 88.934 Q 23.744 88.934 18.02 86.655 A 26.313 26.313 0 0 1 8.698 80.481 A 25.733 25.733 0 0 1 8.321 80.083 A 28.779 28.779 0 0 1 3.21 72.275 A 34.485 34.485 0 0 1 2.173 69.695 A 36.803 36.803 0 0 1 0.359 61.915 A 47.583 47.583 0 0 1 0 55.968 Q 0 45.898 3.71 36.729 A 55.878 55.878 0 0 1 12.668 21.67 A 52.879 52.879 0 0 1 13.621 20.564 Q 19.822 13.568 27.984 9.381 Q 36.146 5.194 45.05 5.194 Q 50.138 5.194 54.749 6.731 A 33.542 33.542 0 0 1 59.987 9.014 A 43.841 43.841 0 0 1 64.13 11.554 L 68.052 6.254 L 71.974 6.254 L 67.098 32.86 L 63.07 32.86 Q 62.222 21.306 58.141 16.006 A 13.146 13.146 0 0 0 50.167 11.125 A 20.528 20.528 0 0 0 45.898 10.706 Q 38.902 10.706 32.86 14.204 A 33.195 33.195 0 0 0 23.796 21.993 A 39.105 39.105 0 0 0 22.366 23.85 A 45.797 45.797 0 0 0 17.245 33.068 A 56.418 56.418 0 0 0 15.37 38.266 A 58.172 58.172 0 0 0 12.966 51.672 A 68.365 68.365 0 0 0 12.826 56.074 A 49.546 49.546 0 0 0 13.67 65.669 Q 16.683 80.857 30.451 82.226 A 28.64 28.64 0 0 0 33.284 82.362 Q 40.916 82.362 47.117 78.228 A 32.073 32.073 0 0 0 52.246 73.91 Q 55.688 70.382 58.936 65.296 Z M 91.054 86.708 L 85.33 56.922 Q 84.075 50.488 82.791 46.988 A 17.718 17.718 0 0 0 81.885 44.891 A 12.976 12.976 0 0 0 81.113 43.59 Q 80.217 42.28 79.28 41.812 A 2.332 2.332 0 0 0 78.228 41.552 A 2.889 2.889 0 0 0 76.494 42.162 Q 75.558 42.849 74.718 44.311 A 12.739 12.739 0 0 0 74.571 44.573 Q 73.205 47.085 71.802 52.053 A 96.618 96.618 0 0 0 71.232 54.166 L 67.31 53.106 A 53.362 53.362 0 0 1 69.093 46.752 A 45.623 45.623 0 0 1 70.119 44.096 A 47.663 47.663 0 0 1 71.944 40.247 A 35.056 35.056 0 0 1 73.935 36.941 Q 75.781 34.243 77.839 32.644 A 13.154 13.154 0 0 1 78.334 32.277 A 10.005 10.005 0 0 1 80.229 31.213 A 7.127 7.127 0 0 1 82.998 30.634 A 4.597 4.597 0 0 1 86.353 32.027 A 5.776 5.776 0 0 1 86.443 32.118 A 7.154 7.154 0 0 1 87.252 33.154 Q 88.292 34.735 89.358 37.63 A 66.27 66.27 0 0 1 90.179 39.962 Q 91.111 42.761 92.167 46.587 A 164.201 164.201 0 0 1 93.597 52.165 Q 94.3 55.11 94.991 58.41 A 276.574 276.574 0 0 1 95.188 59.36 L 98.792 76.426 L 99.216 76.426 Q 101.23 73.882 103.297 70.649 Q 105.364 67.416 107.06 63.865 Q 108.756 60.314 109.816 56.657 A 28.172 28.172 0 0 0 110.628 53.013 A 21.45 21.45 0 0 0 110.876 49.82 A 27.758 27.758 0 0 0 110.864 49.022 Q 110.852 48.609 110.828 48.132 A 66.205 66.205 0 0 0 110.77 47.117 Q 110.664 45.474 110.505 43.778 A 142.266 142.266 0 0 1 110.36 42.122 A 122.376 122.376 0 0 1 110.24 40.545 A 62.407 62.407 0 0 1 110.194 39.813 Q 110.143 38.916 110.135 38.262 A 18.881 18.881 0 0 1 110.134 38.054 Q 110.134 35.602 110.922 33.982 A 5.271 5.271 0 0 1 112.042 32.436 A 7.658 7.658 0 0 1 113.441 31.374 A 5.161 5.161 0 0 1 116.07 30.634 Q 118.681 30.634 119.961 32.727 A 5.61 5.61 0 0 1 120.098 32.966 A 10.356 10.356 0 0 1 121.246 36.523 A 13.341 13.341 0 0 1 121.37 38.372 A 21.492 21.492 0 0 1 121.101 41.607 Q 120.594 44.915 119.135 49.219 A 71.896 71.896 0 0 1 119.038 49.502 A 110.903 110.903 0 0 1 116.335 56.538 A 147.513 147.513 0 0 1 112.89 64.077 Q 109.074 71.868 104.092 79.977 A 168.437 168.437 0 0 1 96.766 90.949 A 144.933 144.933 0 0 1 93.81 94.87 A 123.447 123.447 0 0 1 88.894 100.896 Q 86.256 103.917 83.762 106.292 A 50.517 50.517 0 0 1 78.917 110.399 A 33.041 33.041 0 0 1 74.528 113.161 Q 72.073 114.431 69.744 114.991 A 15.353 15.353 0 0 1 66.144 115.434 A 13.134 13.134 0 0 1 63.199 115.123 Q 60.992 114.615 59.415 113.281 A 8.271 8.271 0 0 1 59.095 112.996 A 8.16 8.16 0 0 1 57.069 110.106 A 8.028 8.028 0 0 1 56.498 107.06 Q 56.498 104.41 57.982 102.767 Q 59.466 101.124 61.904 101.124 A 5.827 5.827 0 0 1 63.093 101.237 Q 63.789 101.382 64.316 101.714 A 2.99 2.99 0 0 1 65.031 102.343 Q 66.038 103.562 66.674 105.099 A 28.628 28.628 0 0 0 67.324 106.557 A 22.106 22.106 0 0 0 67.999 107.855 A 2.385 2.385 0 0 0 68.738 108.678 Q 69.326 109.074 70.172 109.074 A 4.874 4.874 0 0 0 71.599 108.837 Q 72.902 108.436 74.528 107.357 A 21.945 21.945 0 0 0 75.26 106.848 Q 78.334 104.622 81.408 101.283 Q 84.482 97.944 87.185 94.022 Q 89.888 90.1 91.054 86.708 Z M 174.9 66.462 L 188.998 14.628 Q 189.528 12.72 190.058 10.759 Q 190.47 9.235 190.562 8.32 A 4.807 4.807 0 0 0 190.588 7.844 A 2.863 2.863 0 0 0 188.906 5.228 Q 186.906 4.134 182.532 4.134 L 183.38 0.954 L 202.778 0 L 183.804 69.642 Q 182.956 72.504 182.532 74.677 A 28.517 28.517 0 0 0 182.282 76.15 Q 182.184 76.844 182.142 77.448 A 12.569 12.569 0 0 0 182.108 78.334 Q 182.108 79.288 182.638 80.03 Q 183.168 80.772 184.334 80.772 A 4.662 4.662 0 0 0 185.971 80.458 Q 186.597 80.224 187.249 79.816 A 9.936 9.936 0 0 0 187.938 79.341 A 24.188 24.188 0 0 0 190.711 76.896 A 28.121 28.121 0 0 0 191.595 75.949 A 36.442 36.442 0 0 0 194.636 72.05 A 33.671 33.671 0 0 0 194.722 71.921 A 87.537 87.537 0 0 0 195.365 70.944 Q 196.05 69.886 196.49 69.126 A 19.955 19.955 0 0 0 196.736 68.688 L 199.916 70.49 A 34.018 34.018 0 0 1 196.174 76.91 A 37.943 37.943 0 0 1 195.782 77.433 A 42.965 42.965 0 0 1 191.874 81.908 A 37.57 37.57 0 0 1 190.376 83.316 A 32.49 32.49 0 0 1 187.14 85.859 A 25.929 25.929 0 0 1 184.599 87.397 A 15.74 15.74 0 0 1 182.48 88.334 Q 181.318 88.742 180.242 88.872 A 8.251 8.251 0 0 1 179.246 88.934 A 13.73 13.73 0 0 1 177.265 88.801 Q 176.262 88.654 175.458 88.345 A 5.254 5.254 0 0 1 173.787 87.344 Q 172.499 86.173 172.16 83.853 A 12.526 12.526 0 0 1 172.038 82.044 A 19.307 19.307 0 0 1 172.1 80.574 Q 172.218 79.048 172.557 77.003 A 68.263 68.263 0 0 1 172.674 76.32 Q 173.161 73.561 174.207 69.248 A 261.939 261.939 0 0 1 174.9 66.462 Z M 158.682 68.688 L 162.392 70.808 Q 157.94 79.606 152.057 84.27 A 22.556 22.556 0 0 1 146.416 87.598 A 18.502 18.502 0 0 1 139.496 88.934 A 16.266 16.266 0 0 1 134.398 88.17 A 13.268 13.268 0 0 1 128.472 84.217 A 16.105 16.105 0 0 1 124.944 77.203 Q 124.376 74.818 124.341 72.03 A 29.346 29.346 0 0 1 124.338 71.656 A 34.153 34.153 0 0 1 125.248 63.937 A 39.234 39.234 0 0 1 125.716 62.116 Q 127.094 57.24 129.426 52.682 Q 131.758 48.124 134.938 44.096 A 47.532 47.532 0 0 1 139.729 38.853 A 41.42 41.42 0 0 1 141.722 37.1 A 34.984 34.984 0 0 1 146.803 33.595 A 30.519 30.519 0 0 1 149.195 32.383 A 20.318 20.318 0 0 1 153.261 31.018 A 16.556 16.556 0 0 1 156.774 30.634 Q 161.862 30.634 165.148 33.39 A 9.403 9.403 0 0 1 167.437 36.144 A 8.611 8.611 0 0 1 168.434 40.28 A 7.438 7.438 0 0 1 168.2 42.197 A 5.482 5.482 0 0 1 166.897 44.573 A 5.113 5.113 0 0 1 163.316 46.205 A 6.92 6.92 0 0 1 162.922 46.216 A 6.304 6.304 0 0 1 161.058 45.952 A 5.044 5.044 0 0 1 158.947 44.679 A 5.108 5.108 0 0 1 157.411 40.985 A 6.402 6.402 0 0 1 157.41 40.916 A 7.329 7.329 0 0 1 157.46 40.031 Q 157.514 39.59 157.626 39.221 A 3.354 3.354 0 0 1 157.834 38.69 Q 158.215 37.929 158.254 37.253 A 2.658 2.658 0 0 0 158.258 37.1 A 1.227 1.227 0 0 0 157.508 35.926 Q 156.877 35.616 155.714 35.616 Q 152.216 35.616 148.612 38.902 A 29.202 29.202 0 0 0 144.978 42.932 A 39.622 39.622 0 0 0 142.093 47.382 Q 139.178 52.576 137.323 58.989 Q 135.468 65.402 135.468 71.762 A 21.382 21.382 0 0 0 135.679 74.867 Q 135.916 76.475 136.417 77.789 A 9.749 9.749 0 0 0 137.429 79.765 A 6.77 6.77 0 0 0 139.317 81.679 Q 140.839 82.68 142.888 82.68 Q 144.796 82.68 146.863 81.62 A 18.286 18.286 0 0 0 149.074 80.269 A 24.483 24.483 0 0 0 151.05 78.705 Q 153.17 76.85 155.131 74.306 A 36.416 36.416 0 0 0 158.176 69.636 A 40.973 40.973 0 0 0 158.682 68.688 Z M 381.861 42.097 A 16.186 16.186 0 0 0 381.176 46.852 Q 381.176 51.622 383.296 55.12 Q 385.416 58.618 387.96 61.745 Q 390.504 64.872 392.624 68.158 A 12.925 12.925 0 0 1 394.016 71.043 A 14.424 14.424 0 0 1 394.744 75.684 Q 394.744 79.712 392.518 81.991 A 7.274 7.274 0 0 1 389.064 83.963 A 10.308 10.308 0 0 1 386.476 84.27 Q 385.01 84.27 384.138 83.867 A 2.204 2.204 0 0 1 383.243 83.157 A 2.255 2.255 0 0 1 383.214 83.115 Q 382.627 82.252 382.306 80.117 A 26.573 26.573 0 0 1 382.13 78.652 Q 381.705 74.475 379.531 73.087 A 4.723 4.723 0 0 0 376.936 72.398 Q 374.498 72.398 373.067 74.147 A 5.464 5.464 0 0 0 372.432 75.122 Q 371.995 75.977 371.798 77.054 A 10.662 10.662 0 0 0 371.636 78.97 Q 371.636 83.422 375.399 86.178 A 12.211 12.211 0 0 0 377.409 87.368 Q 380.727 88.934 385.522 88.934 Q 389.126 88.934 392.518 87.556 Q 395.91 86.178 398.507 83.793 Q 401.104 81.408 402.641 78.228 Q 404.178 75.048 404.178 71.444 Q 404.178 66.144 402.111 62.222 A 54.127 54.127 0 0 0 401.72 61.492 A 48.791 48.791 0 0 0 397.5 55.014 A 150.029 150.029 0 0 1 395.659 52.587 A 124.156 124.156 0 0 1 392.889 48.707 Q 390.822 45.686 390.822 42.188 A 9.813 9.813 0 0 1 390.935 40.679 A 7.311 7.311 0 0 1 392.412 37.206 A 6.693 6.693 0 0 1 392.782 36.776 A 4.701 4.701 0 0 1 396.334 35.192 A 4.548 4.548 0 0 1 397.16 35.263 A 2.815 2.815 0 0 1 399.196 36.676 A 27.451 27.451 0 0 1 399.716 37.629 A 32.168 32.168 0 0 1 400.786 39.909 A 17.103 17.103 0 0 0 400.928 40.234 A 15.314 15.314 0 0 0 402.588 43.089 A 3.138 3.138 0 0 0 403.486 43.907 Q 404.491 44.52 406.086 44.52 A 5.901 5.901 0 0 0 407.266 44.408 A 4.023 4.023 0 0 0 409.425 43.248 A 3.983 3.983 0 0 0 409.739 42.878 Q 410.283 42.151 410.5 41.168 A 6.574 6.574 0 0 0 410.644 39.75 A 7.727 7.727 0 0 0 409.433 35.465 A 8.927 8.927 0 0 0 407.252 33.178 Q 403.86 30.634 398.772 30.634 A 22.763 22.763 0 0 0 397.131 30.692 A 19.161 19.161 0 0 0 391.723 31.853 A 19.079 19.079 0 0 0 390.735 32.257 A 16.358 16.358 0 0 0 386.158 35.245 Q 383.826 37.418 382.501 40.386 A 14.808 14.808 0 0 0 381.861 42.097 Z M 360.612 71.55 L 364.004 73.776 Q 357.941 83.742 350.045 87.156 A 21.751 21.751 0 0 1 341.32 88.934 A 18.972 18.972 0 0 1 336.741 88.414 A 12.616 12.616 0 0 1 330.084 84.429 A 14.776 14.776 0 0 1 327.143 78.983 Q 326.469 76.788 326.258 74.148 A 31.344 31.344 0 0 1 326.162 71.656 A 37.403 37.403 0 0 1 328.434 58.971 A 43.606 43.606 0 0 1 329.183 57.028 Q 332.204 49.714 337.08 43.831 Q 341.956 37.948 347.998 34.291 A 26.801 26.801 0 0 1 353.663 31.666 A 20.868 20.868 0 0 1 360.082 30.634 A 16.302 16.302 0 0 1 363.757 31.026 A 11.405 11.405 0 0 1 368.403 33.231 A 8.836 8.836 0 0 1 370.642 35.828 A 8.165 8.165 0 0 1 371.636 39.856 A 11.176 11.176 0 0 1 370.824 43.947 Q 370.14 45.696 368.88 47.488 A 28.685 28.685 0 0 1 365.399 51.535 A 39.107 39.107 0 0 1 361.407 54.908 Q 356.69 58.406 350.383 61.268 Q 344.076 64.13 336.974 65.72 Q 336.762 67.204 336.656 68.635 Q 336.55 70.066 336.55 71.55 A 24.225 24.225 0 0 0 336.862 75.623 Q 338.108 82.893 344.346 83.098 A 11.148 11.148 0 0 0 344.712 83.104 A 11.26 11.26 0 0 0 348.827 82.287 Q 350.793 81.519 352.821 80.03 A 28.207 28.207 0 0 0 356.984 76.24 Q 358.749 74.298 360.394 71.875 A 46.932 46.932 0 0 0 360.612 71.55 Z M 222.6 88.934 Q 218.996 88.934 215.869 87.503 Q 212.742 86.072 210.41 83.316 Q 208.078 80.56 206.7 76.585 A 24.576 24.576 0 0 1 205.55 71.51 A 31.947 31.947 0 0 1 205.322 67.628 Q 205.322 60.738 207.919 54.06 A 44.31 44.31 0 0 1 213.409 43.932 A 40.879 40.879 0 0 1 214.756 42.188 A 36.02 36.02 0 0 1 223.11 34.64 A 33.905 33.905 0 0 1 224.455 33.814 A 23.323 23.323 0 0 1 231.38 31.091 A 21.009 21.009 0 0 1 235.744 30.634 Q 239.56 30.634 242.793 32.065 Q 246.026 33.496 248.305 36.199 Q 250.584 38.902 251.909 42.665 A 23.317 23.317 0 0 1 253.092 48.08 A 28.86 28.86 0 0 1 253.234 50.986 Q 253.234 57.664 250.584 64.448 A 47.003 47.003 0 0 1 243.908 76.299 A 44.478 44.478 0 0 1 243.641 76.638 A 39.072 39.072 0 0 1 235.195 84.597 A 36.634 36.634 0 0 1 233.836 85.489 A 23.511 23.511 0 0 1 228.271 88.073 A 19.248 19.248 0 0 1 222.6 88.934 Z M 223.236 83.634 Q 226.84 83.634 230.391 79.924 A 32.433 32.433 0 0 0 233.953 75.431 A 44.576 44.576 0 0 0 236.751 70.543 Q 239.56 64.872 241.309 58.194 A 54.573 54.573 0 0 0 242.77 50.488 A 44.73 44.73 0 0 0 243.058 45.474 A 25.302 25.302 0 0 0 242.936 42.884 Q 242.568 39.326 241.097 37.736 Q 239.136 35.616 235.744 35.616 A 7.259 7.259 0 0 0 232.966 36.191 Q 232.016 36.582 231.058 37.238 A 12.626 12.626 0 0 0 231.027 37.259 A 16.794 16.794 0 0 0 228.568 39.349 A 23.038 23.038 0 0 0 226.522 41.764 A 40.393 40.393 0 0 0 224.098 45.462 A 50.825 50.825 0 0 0 222.547 48.336 Q 220.692 52.046 219.314 56.18 Q 217.936 60.314 217.194 64.607 Q 216.452 68.9 216.452 72.822 Q 216.452 78.758 218.36 81.196 A 6.593 6.593 0 0 0 220.159 82.819 A 5.876 5.876 0 0 0 223.236 83.634 Z M 357.962 35.616 A 8.097 8.097 0 0 0 355.064 36.18 Q 354.023 36.577 352.954 37.254 A 15.493 15.493 0 0 0 352.238 37.736 A 23.341 23.341 0 0 0 349.16 40.392 A 31.734 31.734 0 0 0 346.567 43.407 A 45.343 45.343 0 0 0 343.225 48.501 A 55.114 55.114 0 0 0 341.638 51.516 Q 339.412 56.074 338.034 60.95 A 49.428 49.428 0 0 0 345.777 58.167 A 44.369 44.369 0 0 0 347.468 57.346 A 38.653 38.653 0 0 0 351.972 54.657 A 30.862 30.862 0 0 0 354.941 52.311 A 27.246 27.246 0 0 0 357.965 49.144 A 21.654 21.654 0 0 0 359.87 46.375 A 13.93 13.93 0 0 0 361.25 43.136 A 11.457 11.457 0 0 0 361.672 40.068 Q 361.672 35.616 357.962 35.616 Z" vector-effect="non-scaling-stroke"/></g></svg>