<svg width="339.992" height="85.47" viewBox="0 0 339.992 85.47" xmlns="http://www.w3.org/2000/svg"><g id="svgGroup" stroke-linecap="round" fill-rule="evenodd" font-size="9pt" stroke="#000" stroke-width="0.25mm" fill="black" style="stroke:#000;stroke-width:0.25mm;fill:black"><path d="M 47.146 52.29 L 49.456 53.55 Q 41.476 67.2 25.516 67.2 Q 15.016 67.2 8.658 61.984 A 20.546 20.546 0 0 1 6.616 60.06 Q 0.001 52.92 0.001 42.105 Q 0.001 33.495 3.466 26.04 A 39.679 39.679 0 0 1 7.995 18.5 A 32.939 32.939 0 0 1 12.391 13.808 Q 17.851 9.03 24.519 6.353 A 41.767 41.767 0 0 1 24.623 6.311 Q 29.377 4.416 34.105 3.883 A 32.977 32.977 0 0 1 37.801 3.675 Q 40.846 3.675 44.626 5.25 A 140.015 140.015 0 0 0 45.52 5.619 Q 47.882 6.584 48.648 6.777 A 1.299 1.299 0 0 0 48.931 6.825 A 1.253 1.253 0 0 0 50.038 6.179 Q 50.366 5.66 50.506 4.725 L 52.921 4.725 L 51.766 18.06 L 49.456 18.06 Q 49.456 13.335 46.516 10.29 A 8.954 8.954 0 0 0 43.057 8.117 Q 41.626 7.599 39.857 7.389 A 21.895 21.895 0 0 0 37.276 7.245 A 20.913 20.913 0 0 0 23.096 12.797 A 32.136 32.136 0 0 0 18.901 17.325 A 37.093 37.093 0 0 0 11.558 35.345 A 48.816 48.816 0 0 0 11.131 41.895 A 35.561 35.561 0 0 0 11.644 48.139 Q 12.714 54.128 16.014 57.96 A 16.37 16.37 0 0 0 21.322 62.123 A 15.762 15.762 0 0 0 28.246 63.63 A 17.237 17.237 0 0 0 33.958 62.608 Q 36.133 61.846 38.383 60.519 A 31.459 31.459 0 0 0 39.219 60.008 A 32.721 32.721 0 0 0 42.702 57.491 Q 44.383 56.086 45.579 54.616 A 14.847 14.847 0 0 0 47.146 52.29 Z M 255.781 18.9 L 254.521 26.565 A 20.151 20.151 0 0 1 269.225 18.869 A 26.301 26.301 0 0 1 271.216 18.795 A 23.709 23.709 0 0 1 276.205 19.272 Q 284.656 21.099 284.656 29.925 Q 284.656 31.71 284.341 33.81 L 280.771 55.02 A 58.181 58.181 0 0 0 280.684 55.75 Q 280.561 56.848 280.561 57.33 Q 280.561 59.512 281.289 60.993 A 5.184 5.184 0 0 0 281.979 62.055 A 4.635 4.635 0 0 0 285.005 63.675 A 6.711 6.711 0 0 0 285.916 63.735 L 285.496 66.15 A 45.847 45.847 0 0 1 281.657 66 Q 277.842 65.679 275.393 64.664 A 10.884 10.884 0 0 1 274.524 64.26 Q 271.343 62.601 270.955 59.161 A 8.835 8.835 0 0 1 270.901 58.17 Q 270.901 57.54 271.111 56.07 L 274.996 33.075 Q 275.171 32.198 275.2 30.662 A 33.63 33.63 0 0 0 275.206 30.03 A 10.109 10.109 0 0 0 274.777 26.947 Q 273.343 22.47 267.121 22.47 A 11.762 11.762 0 0 0 260.14 24.867 Q 256.681 27.36 253.576 32.445 L 247.906 66.15 L 238.456 66.15 L 245.071 26.355 Q 244.173 26.255 242.801 26.155 A 113.064 113.064 0 0 0 242.656 26.145 Q 241.341 26.051 240.446 25.957 A 33.967 33.967 0 0 1 240.241 25.935 A 19.058 19.058 0 0 0 239.454 25.863 Q 238.975 25.83 238.561 25.83 L 238.981 23.415 A 6.613 6.613 0 0 0 240.055 23.307 Q 242.331 22.921 247.171 21.158 Q 253.366 18.9 255.781 18.9 Z M 65.101 77.49 L 71.506 66.15 L 61.846 24.255 Q 61.256 22.287 56.238 22.163 A 28.129 28.129 0 0 0 55.546 22.155 L 55.966 19.95 L 70.876 19.95 L 78.751 53.34 L 95.761 23.31 A 3.396 3.396 0 0 0 94.769 22.755 Q 93.21 22.161 90.155 22.155 A 31.788 31.788 0 0 0 90.091 22.155 L 90.511 19.95 L 102.901 19.95 L 70.561 76.86 Q 65.521 85.47 58.066 85.47 A 4.413 4.413 0 0 1 55.504 84.646 A 5.488 5.488 0 0 1 55.336 84.525 A 3.611 3.611 0 0 1 54.619 83.826 A 2.597 2.597 0 0 1 54.076 82.215 A 4.491 4.491 0 0 1 54.8 79.789 A 6.094 6.094 0 0 1 55.336 79.065 Q 56.596 77.595 58.171 77.595 Q 58.979 77.595 59.981 78.42 A 6.769 6.769 0 0 1 60.061 78.488 A 6.346 6.346 0 0 0 60.566 78.878 Q 61.12 79.259 61.571 79.351 A 1.382 1.382 0 0 0 61.846 79.38 Q 63.896 79.38 64.948 77.746 A 4.605 4.605 0 0 0 65.101 77.49 Z M 143.536 56.28 L 145.846 57.54 A 25.577 25.577 0 0 1 140.457 62.704 A 22.748 22.748 0 0 1 136.711 64.837 A 24.254 24.254 0 0 1 131.777 66.41 Q 129.331 66.929 126.478 67.107 A 49.817 49.817 0 0 1 123.376 67.2 Q 115.711 67.2 110.094 62.685 Q 105.454 58.956 104.646 51.216 A 33.188 33.188 0 0 1 104.476 47.775 Q 104.476 35.28 112.036 27.09 A 25.057 25.057 0 0 1 128.014 19.142 A 35.105 35.105 0 0 1 132.196 18.9 Q 147.841 18.9 147.841 28.14 Q 147.841 31.036 146.554 32.956 A 6.6 6.6 0 0 1 146.319 33.285 A 5.06 5.06 0 0 1 144.641 34.733 Q 143.595 35.28 142.276 35.28 A 8.092 8.092 0 0 1 140.794 35.157 Q 138.181 34.667 138.181 32.235 A 6.333 6.333 0 0 1 138.339 30.775 Q 138.615 29.61 139.373 28.823 A 3.99 3.99 0 0 1 139.651 28.56 Q 140.805 27.571 141.958 27.358 A 3.481 3.481 0 0 1 142.591 27.3 A 4.765 4.765 0 0 0 139.555 23.184 Q 137.114 22.05 132.721 22.05 A 15.218 15.218 0 0 0 121.952 26.478 A 22.023 22.023 0 0 0 120.069 28.508 A 22.909 22.909 0 0 0 115.297 38.98 A 32.019 32.019 0 0 0 114.766 44.94 A 25.6 25.6 0 0 0 115.531 51.339 A 20.054 20.054 0 0 0 118.494 57.855 Q 122.221 63.21 127.681 63.21 Q 136.921 63.21 143.536 56.28 Z M 325.711 41.58 L 305.446 44.31 A 28.488 28.488 0 0 0 306.139 50.747 A 21.28 21.28 0 0 0 309.069 57.698 A 14.741 14.741 0 0 0 311.522 60.604 A 9.785 9.785 0 0 0 318.256 63.21 Q 327.496 63.21 334.111 56.28 L 336.421 57.54 A 25.577 25.577 0 0 1 331.032 62.704 A 22.748 22.748 0 0 1 327.286 64.837 A 24.254 24.254 0 0 1 322.352 66.41 Q 319.906 66.929 317.053 67.107 A 49.817 49.817 0 0 1 313.951 67.2 Q 306.286 67.2 300.669 62.685 Q 296.029 58.956 295.221 51.216 A 33.188 33.188 0 0 1 295.051 47.775 Q 295.051 35.28 301.981 27.09 Q 308.911 18.9 320.986 18.9 A 34.76 34.76 0 0 1 326.202 19.264 Q 328.868 19.67 331.001 20.528 A 13.785 13.785 0 0 1 335.371 23.257 A 16.679 16.679 0 0 1 338.141 26.592 A 11.914 11.914 0 0 1 339.991 32.97 A 6.279 6.279 0 0 1 337.941 37.742 A 8.158 8.158 0 0 1 337.314 38.272 A 8.374 8.374 0 0 1 335.584 39.247 Q 332.405 40.635 325.711 41.58 Z M 155.821 56.07 L 164.011 7.455 A 8340.844 8340.844 0 0 0 162.484 7.332 Q 158.231 6.99 157.532 6.939 A 4.361 4.361 0 0 0 157.396 6.93 L 157.816 4.515 A 6.613 6.613 0 0 0 158.89 4.407 Q 161.166 4.021 166.006 2.258 Q 172.201 0 174.616 0 L 165.481 55.02 A 58.181 58.181 0 0 0 165.394 55.75 Q 165.271 56.848 165.271 57.33 Q 165.271 59.512 165.999 60.993 A 5.184 5.184 0 0 0 166.689 62.055 A 4.635 4.635 0 0 0 169.715 63.675 A 6.711 6.711 0 0 0 170.626 63.735 L 170.206 66.15 A 45.847 45.847 0 0 1 166.367 66 Q 162.552 65.679 160.103 64.664 A 10.884 10.884 0 0 1 159.234 64.26 Q 156.053 62.601 155.665 59.161 A 8.835 8.835 0 0 1 155.611 58.17 Q 155.611 57.543 155.819 56.082 A 58.185 58.185 0 0 1 155.821 56.07 Z M 195.085 66.661 A 32.311 32.311 0 0 0 201.181 67.2 A 36.57 36.57 0 0 0 208.74 66.46 A 24.27 24.27 0 0 0 222.286 58.8 A 28.475 28.475 0 0 0 228.414 47.614 A 36.184 36.184 0 0 0 229.741 37.59 A 24.099 24.099 0 0 0 229.223 32.457 A 16.151 16.151 0 0 0 224.439 23.835 Q 220.71 20.365 214.36 19.335 A 36.476 36.476 0 0 0 208.531 18.9 A 37.045 37.045 0 0 0 200.059 19.812 A 24.262 24.262 0 0 0 187.426 26.985 A 27.074 27.074 0 0 0 181.249 38.01 A 34.828 34.828 0 0 0 179.971 47.67 A 25.242 25.242 0 0 0 180.403 52.45 A 17.377 17.377 0 0 0 185.431 61.95 Q 189.142 65.518 195.085 66.661 Z M 190.156 47.67 A 32.399 32.399 0 0 0 190.426 52 Q 190.728 54.232 191.367 56.044 A 12.544 12.544 0 0 0 193.569 60.007 Q 196.981 64.05 203.071 64.05 A 12.134 12.134 0 0 0 212.283 59.865 A 20.706 20.706 0 0 0 214.989 56.123 A 33.773 33.773 0 0 0 219.016 44.519 A 44.233 44.233 0 0 0 219.556 37.485 A 25.639 25.639 0 0 0 218.963 31.7 Q 217.13 23.819 209.637 22.445 A 18.955 18.955 0 0 0 206.221 22.155 Q 199.081 22.155 194.619 29.925 Q 190.156 37.695 190.156 47.67 Z M 305.656 41.055 L 321.301 38.955 A 20.859 20.859 0 0 0 324.674 38.273 Q 330.541 36.52 330.541 31.5 A 9.764 9.764 0 0 0 328.444 25.453 A 12.422 12.422 0 0 0 328.074 24.99 Q 325.606 22.05 320.041 22.05 Q 316.881 22.05 313.692 24.936 A 22.343 22.343 0 0 0 311.379 27.405 A 25.293 25.293 0 0 0 307.259 34.801 A 34.855 34.855 0 0 0 305.656 41.055 Z" vector-effect="non-scaling-stroke"/></g></svg>